<svg width="771" height="153" viewBox="0 0 771 153" fill="none" xmlns="http://www.w3.org/2000/svg">
<path d="M47.43 75.484C51.442 76.232 54.74 78.238 57.324 81.502C59.908 84.766 61.2 88.506 61.2 92.722C61.2 96.53 60.248 99.896 58.344 102.82C56.508 105.676 53.822 107.92 50.286 109.552C46.75 111.184 42.568 112 37.74 112H7.038V40.804H36.414C41.242 40.804 45.39 41.586 48.858 43.15C52.394 44.714 55.046 46.89 56.814 49.678C58.65 52.466 59.568 55.628 59.568 59.164C59.568 63.312 58.446 66.78 56.202 69.568C54.026 72.356 51.102 74.328 47.43 75.484ZM21.318 70.18H34.374C37.774 70.18 40.392 69.432 42.228 67.936C44.064 66.372 44.982 64.162 44.982 61.306C44.982 58.45 44.064 56.24 42.228 54.676C40.392 53.112 37.774 52.33 34.374 52.33H21.318V70.18ZM35.7 100.372C39.168 100.372 41.854 99.556 43.758 97.924C45.73 96.292 46.716 93.98 46.716 90.988C46.716 87.928 45.696 85.548 43.656 83.848C41.616 82.08 38.862 81.196 35.394 81.196H21.318V100.372H35.7ZM86.861 36.52V112H72.581V36.52H86.861ZM97.2976 83.542C97.2976 77.83 98.4196 72.764 100.664 68.344C102.976 63.924 106.07 60.524 109.946 58.144C113.89 55.764 118.276 54.574 123.104 54.574C127.32 54.574 130.992 55.424 134.12 57.124C137.316 58.824 139.866 60.966 141.77 63.55V55.492H156.152V112H141.77V103.738C139.934 106.39 137.384 108.6 134.12 110.368C130.924 112.068 127.218 112.918 123.002 112.918C118.242 112.918 113.89 111.694 109.946 109.246C106.07 106.798 102.976 103.364 100.664 98.944C98.4196 94.456 97.2976 89.322 97.2976 83.542ZM141.77 83.746C141.77 80.278 141.09 77.32 139.73 74.872C138.37 72.356 136.534 70.452 134.222 69.16C131.91 67.8 129.428 67.12 126.776 67.12C124.124 67.12 121.676 67.766 119.432 69.058C117.188 70.35 115.352 72.254 113.924 74.77C112.564 77.218 111.884 80.142 111.884 83.542C111.884 86.942 112.564 89.934 113.924 92.518C115.352 95.034 117.188 96.972 119.432 98.332C121.744 99.692 124.192 100.372 126.776 100.372C129.428 100.372 131.91 99.726 134.222 98.434C136.534 97.074 138.37 95.17 139.73 92.722C141.09 90.206 141.77 87.214 141.77 83.746ZM223.445 55.492V112H209.063V104.86C207.227 107.308 204.813 109.246 201.821 110.674C198.897 112.034 195.701 112.714 192.233 112.714C187.813 112.714 183.903 111.796 180.503 109.96C177.103 108.056 174.417 105.302 172.445 101.698C170.541 98.026 169.589 93.674 169.589 88.642V55.492H183.869V86.602C183.869 91.09 184.991 94.558 187.235 97.006C189.479 99.386 192.539 100.576 196.415 100.576C200.359 100.576 203.453 99.386 205.697 97.006C207.941 94.558 209.063 91.09 209.063 86.602V55.492H223.445ZM315.87 55.492L299.346 112H283.944L273.642 72.526L263.34 112H247.836L231.21 55.492H245.694L255.69 98.536L266.502 55.492H281.598L292.206 98.434L302.202 55.492H315.87ZM376.127 82.522C376.127 84.562 375.991 86.398 375.719 88.03H334.409C334.749 92.11 336.177 95.306 338.693 97.618C341.209 99.93 344.303 101.086 347.975 101.086C353.279 101.086 357.053 98.808 359.297 94.252H374.699C373.067 99.692 369.939 104.18 365.315 107.716C360.691 111.184 355.013 112.918 348.281 112.918C342.841 112.918 337.945 111.728 333.593 109.348C329.309 106.9 325.943 103.466 323.495 99.046C321.115 94.626 319.925 89.526 319.925 83.746C319.925 77.898 321.115 72.764 323.495 68.344C325.875 63.924 329.207 60.524 333.491 58.144C337.775 55.764 342.705 54.574 348.281 54.574C353.653 54.574 358.447 55.73 362.663 58.042C366.947 60.354 370.245 63.652 372.557 67.936C374.937 72.152 376.127 77.014 376.127 82.522ZM361.337 78.442C361.269 74.77 359.943 71.846 357.359 69.67C354.775 67.426 351.613 66.304 347.873 66.304C344.337 66.304 341.345 67.392 338.897 69.568C336.517 71.676 335.055 74.634 334.511 78.442H361.337Z" fill="#385193"/>
<path d="M440.43 75.484C444.442 76.232 447.74 78.238 450.324 81.502C452.908 84.766 454.2 88.506 454.2 92.722C454.2 96.53 453.248 99.896 451.344 102.82C449.508 105.676 446.822 107.92 443.286 109.552C439.75 111.184 435.568 112 430.74 112H400.038V40.804H429.414C434.242 40.804 438.39 41.586 441.858 43.15C445.394 44.714 448.046 46.89 449.814 49.678C451.65 52.466 452.568 55.628 452.568 59.164C452.568 63.312 451.446 66.78 449.202 69.568C447.026 72.356 444.102 74.328 440.43 75.484ZM414.318 70.18H427.374C430.774 70.18 433.392 69.432 435.228 67.936C437.064 66.372 437.982 64.162 437.982 61.306C437.982 58.45 437.064 56.24 435.228 54.676C433.392 53.112 430.774 52.33 427.374 52.33H414.318V70.18ZM428.7 100.372C432.168 100.372 434.854 99.556 436.758 97.924C438.73 96.292 439.716 93.98 439.716 90.988C439.716 87.928 438.696 85.548 436.656 83.848C434.616 82.08 431.862 81.196 428.394 81.196H414.318V100.372H428.7ZM461.909 83.542C461.909 77.83 463.031 72.764 465.275 68.344C467.587 63.924 470.681 60.524 474.557 58.144C478.501 55.764 482.887 54.574 487.715 54.574C491.931 54.574 495.603 55.424 498.731 57.124C501.927 58.824 504.477 60.966 506.381 63.55V55.492H520.763V112H506.381V103.738C504.545 106.39 501.995 108.6 498.731 110.368C495.535 112.068 491.829 112.918 487.613 112.918C482.853 112.918 478.501 111.694 474.557 109.246C470.681 106.798 467.587 103.364 465.275 98.944C463.031 94.456 461.909 89.322 461.909 83.542ZM506.381 83.746C506.381 80.278 505.701 77.32 504.341 74.872C502.981 72.356 501.145 70.452 498.833 69.16C496.521 67.8 494.039 67.12 491.387 67.12C488.735 67.12 486.287 67.766 484.043 69.058C481.799 70.35 479.963 72.254 478.535 74.77C477.175 77.218 476.495 80.142 476.495 83.542C476.495 86.942 477.175 89.934 478.535 92.518C479.963 95.034 481.799 96.972 484.043 98.332C486.355 99.692 488.803 100.372 491.387 100.372C494.039 100.372 496.521 99.726 498.833 98.434C501.145 97.074 502.981 95.17 504.341 92.722C505.701 90.206 506.381 87.214 506.381 83.746ZM556.844 54.574C561.06 54.574 564.766 55.424 567.962 57.124C571.158 58.756 573.674 60.898 575.51 63.55V55.492H589.892V112.408C589.892 117.644 588.838 122.302 586.73 126.382C584.622 130.53 581.46 133.794 577.244 136.174C573.028 138.622 567.928 139.846 561.944 139.846C553.92 139.846 547.324 137.976 542.156 134.236C537.056 130.496 534.166 125.396 533.486 118.936H547.664C548.412 121.52 550.01 123.56 552.458 125.056C554.974 126.62 558 127.402 561.536 127.402C565.684 127.402 569.05 126.144 571.634 123.628C574.218 121.18 575.51 117.44 575.51 112.408V103.636C573.674 106.288 571.124 108.498 567.86 110.266C564.664 112.034 560.992 112.918 556.844 112.918C552.084 112.918 547.732 111.694 543.788 109.246C539.844 106.798 536.716 103.364 534.404 98.944C532.16 94.456 531.038 89.322 531.038 83.542C531.038 77.83 532.16 72.764 534.404 68.344C536.716 63.924 539.81 60.524 543.686 58.144C547.63 55.764 552.016 54.574 556.844 54.574ZM575.51 83.746C575.51 80.278 574.83 77.32 573.47 74.872C572.11 72.356 570.274 70.452 567.962 69.16C565.65 67.8 563.168 67.12 560.516 67.12C557.864 67.12 555.416 67.766 553.172 69.058C550.928 70.35 549.092 72.254 547.664 74.77C546.304 77.218 545.624 80.142 545.624 83.542C545.624 86.942 546.304 89.934 547.664 92.518C549.092 95.034 550.928 96.972 553.172 98.332C555.484 99.692 557.932 100.372 560.516 100.372C563.168 100.372 565.65 99.726 567.962 98.434C570.274 97.074 572.11 95.17 573.47 92.722C574.83 90.206 575.51 87.214 575.51 83.746ZM625.973 54.574C630.189 54.574 633.895 55.424 637.091 57.124C640.287 58.756 642.803 60.898 644.639 63.55V55.492H659.021V112.408C659.021 117.644 657.967 122.302 655.859 126.382C653.751 130.53 650.589 133.794 646.373 136.174C642.157 138.622 637.057 139.846 631.073 139.846C623.049 139.846 616.453 137.976 611.285 134.236C606.185 130.496 603.295 125.396 602.615 118.936H616.793C617.541 121.52 619.139 123.56 621.587 125.056C624.103 126.62 627.129 127.402 630.665 127.402C634.813 127.402 638.179 126.144 640.763 123.628C643.347 121.18 644.639 117.44 644.639 112.408V103.636C642.803 106.288 640.253 108.498 636.989 110.266C633.793 112.034 630.121 112.918 625.973 112.918C621.213 112.918 616.861 111.694 612.917 109.246C608.973 106.798 605.845 103.364 603.533 98.944C601.289 94.456 600.167 89.322 600.167 83.542C600.167 77.83 601.289 72.764 603.533 68.344C605.845 63.924 608.939 60.524 612.815 58.144C616.759 55.764 621.145 54.574 625.973 54.574ZM644.639 83.746C644.639 80.278 643.959 77.32 642.599 74.872C641.239 72.356 639.403 70.452 637.091 69.16C634.779 67.8 632.297 67.12 629.645 67.12C626.993 67.12 624.545 67.766 622.301 69.058C620.057 70.35 618.221 72.254 616.793 74.77C615.433 77.218 614.753 80.142 614.753 83.542C614.753 86.942 615.433 89.934 616.793 92.518C618.221 95.034 620.057 96.972 622.301 98.332C624.613 99.692 627.061 100.372 629.645 100.372C632.297 100.372 634.779 99.726 637.091 98.434C639.403 97.074 641.239 95.17 642.599 92.722C643.959 90.206 644.639 87.214 644.639 83.746ZM725.498 82.522C725.498 84.562 725.362 86.398 725.09 88.03H683.78C684.12 92.11 685.548 95.306 688.064 97.618C690.58 99.93 693.674 101.086 697.346 101.086C702.65 101.086 706.424 98.808 708.668 94.252H724.07C722.438 99.692 719.31 104.18 714.686 107.716C710.062 111.184 704.384 112.918 697.652 112.918C692.212 112.918 687.316 111.728 682.964 109.348C678.68 106.9 675.314 103.466 672.866 99.046C670.486 94.626 669.296 89.526 669.296 83.746C669.296 77.898 670.486 72.764 672.866 68.344C675.246 63.924 678.578 60.524 682.862 58.144C687.146 55.764 692.076 54.574 697.652 54.574C703.024 54.574 707.818 55.73 712.034 58.042C716.318 60.354 719.616 63.652 721.928 67.936C724.308 72.152 725.498 77.014 725.498 82.522ZM710.708 78.442C710.64 74.77 709.314 71.846 706.73 69.67C704.146 67.426 700.984 66.304 697.244 66.304C693.708 66.304 690.716 67.392 688.268 69.568C685.888 71.676 684.426 74.634 683.882 78.442H710.708ZM750.201 64.264C752.037 61.272 754.417 58.926 757.341 57.226C760.333 55.526 763.733 54.676 767.541 54.676V69.67H763.767C759.279 69.67 755.879 70.724 753.567 72.832C751.323 74.94 750.201 78.612 750.201 83.848V112H735.921V55.492H750.201V64.264Z" fill="#ffffff"/>
</svg>

